<?xml version="1.0" encoding="UTF-8"?>
<svg xmlns="http://www.w3.org/2000/svg" xmlns:xlink="http://www.w3.org/1999/xlink" version="1.1" viewBox="0 0 600 400">
  <!-- Generator: Adobe Illustrator 30.4.0, SVG Export Plug-In . SVG Version: 2.1.4 Build 226)  -->
  <defs>
    <style>
      .st0 {
        fill: #595959;
      }

      .st1 {
        fill: url(#Unbenannter_Verlauf_107);
        opacity: .61;
      }

      .st2 {
        stroke: #ca6a19;
      }

      .st2, .st3, .st4 {
        fill: none;
        stroke-miterlimit: 10;
        stroke-width: 3px;
      }

      .st3 {
        stroke: #804117;
      }

      .st5 {
        opacity: .99;
      }

      .st6 {
        fill: #7f7f7f;
      }

      .st4 {
        stroke: #c18d12;
      }
    </style>
    <linearGradient id="Unbenannter_Verlauf_107" data-name="Unbenannter Verlauf 107" x1="360.87" y1="137.63" x2="-43.09" y2="541.59" gradientUnits="userSpaceOnUse">
      <stop offset=".12" stop-color="#bc631a"/>
      <stop offset=".9" stop-color="#804117"/>
    </linearGradient>
  </defs>
  <g id="Ebene_2">
    <rect class="st1" x="-7" y="-12" width="615" height="420"/>
  </g>
  <g id="Ebene_1">
    <g>
      <g>
        <path class="st0" d="M517.3,71.05l-20.72-.16c-.66-2.54-.57-5.08,0-7.94l28.42-.25c1.64,0,2.7,1.23,2.7,2.87v18.02c0,4.5-3.36,7.78-8.03,7.78h-32.92c-7.45,0-13.43-5.24-14.49-12.69-1.06-7.62-1.15-15.4.08-23.01,1.31-8.03,7.78-13.18,15.8-13.18l38.57-.25c.66,3.52.57,6.47.08,9.91l-35.21.25c-5.16,0-8.93,3.44-8.93,8.52v13.43c0,4.5,3.44,7.78,8.03,7.86l23.34.16c1.8,0,3.28-1.39,3.19-3.03v-8.11l.08-.16Z"/>
        <path class="st0" d="M395.04,78.34c-1.47,7.7-7.21,12.77-14.82,12.86l-39.8.33v-49.22c-.08,0,38.57.08,38.57.08,8.19,0,14.25,5.32,15.97,13.18,1.23,7.45,1.23,14.9.08,22.77h0ZM384.72,73.84v-12.86c-.25-5.08-4.09-8.52-9.25-8.6l-24.49-.16v30.05h24.89c4.75,0,8.43-3.19,8.84-8.43Z"/>
        <path class="st0" d="M449.91,91.2l-31.53.16c-7.12,0-12.61-4.83-13.76-11.87-1.31-7.86-1.23-16.05-.08-23.99.98-7.45,6.96-12.86,14.58-12.86h29.07c8.11-.08,14,6.14,14.9,14.17s.82,14.49,0,21.62c-.82,7.12-5.73,12.77-13.27,12.86l.08-.08ZM445.49,82.11c4.18,0,6.72-3.36,7.12-6.88v-15.31c0-3.93-2.87-7.37-7.04-7.37h-23.26c-4.42-.08-7.37,3.44-7.45,7.62v14.17c0,4.09,2.78,7.86,7.21,7.86h23.34l.08-.08Z"/>
        <path class="st0" d="M123.82,91.44l-40.13.16c-.57-3.36-.57-6.14.33-9.25h36.11c3.36,0,5-2.37,4.75-5.65s-.08-3.03-.98-4.09-2.05-1.39-3.52-1.39l-26.04-.33c-5.65,0-10.4-3.85-10.48-9.34l-.16-8.93c-.08-5.4,4.67-9.99,10.48-10.07l38.65-.33c1.23,3.36,1.15,6.63.16,9.91l-35.38.33c-2.62,0-3.19,3.03-3.28,4.83s.49,5.08,3.44,5.16l27.11.49c7.04.16,11.14,5.24,10.89,12.12-.25,6.88.33,8.43-2.13,12.04-1.88,2.87-5.81,4.34-9.83,4.34Z"/>
        <path class="st0" d="M198.18,91.53h-9.66c-2.46.16-4.01-1.06-5.32-2.78l-27.84-36.44-.49,39.06c-3.44.41-6.63.57-10.24,0v-44.47c0-2.62,1.56-4.59,4.18-4.5h10.73c3.11,1.39,4.42,4.42,6.39,6.96l24.98,32.59.57-39.31c3.69-.41,6.8-.57,10.24.25v44.71c0,2.05-1.39,4.01-3.6,4.01l.08-.08Z"/>
        <path class="st0" d="M320.11,75.97l-29.4.25-.33,14.9c-3.36.74-6.88.74-10.56.16v-48.97h39.88c6.31,0,11.3,3.93,12.53,9.83,1.06,4.83,1.06,9.75,0,14.49s-5.81,9.17-12.04,9.25l-.08.08ZM322.16,58.85c.16-4.18-2.05-6.63-5.9-6.63h-25.88v15.07h24.89c2.37,0,4.5-.74,5.57-2.21s1.15-3.69,1.23-6.22h.08Z"/>
        <path class="st0" d="M256.4,81.29l-32.02-.16-5.65,10.32c-4.01.08-7.45.66-11.38-.49l24.98-46.43c1.64-2.95,5.24-2.21,7.86-2.46,3.85-.25,6.55.33,8.43,3.77l24.81,45.12c-4.09.98-7.94.66-11.79.25l-5.32-9.99.08.08ZM251.81,73.02l-12.04-21.21-11.46,21.46,23.5-.25Z"/>
      </g>
      <g>
        <path class="st6" d="M127.75,128.87l-.41-11.71c-3.03,3.03-4.42,6.72-6.8,10.73l-7.12-9.99c-1.15,4.26-.57,7.37-.49,11.38l-2.37.16v-18.67c.82,0,1.56-.16,1.97,0s.74,1.15,1.06,1.64l6.55,11.46,6.8-11.38c.25-.41.33-1.56.9-1.72s1.15-.08,2.21,0v18.51c-.08.49-2.13.57-2.13-.25l-.16-.16Z"/>
        <path class="st6" d="M284.73,129.2l-.49-12.04c-4.01,3.93-6.47,12.28-8.11,9.75l-6.22-9.66-.49,11.87c-.57.33-1.88.33-2.21,0v-18.43c.9,0,1.72-.16,2.13,0s.66,1.31.9,1.72l6.8,11.38,6.8-11.38c.25-.33.33-1.56.82-1.8s1.23,0,2.13,0v17.85c.08.57-.9,1.39-2.05.66v.08Z"/>
        <path class="st6" d="M498.39,128.87l-.49-11.71-7.29,10.73-7.04-10.56c-1.06,3.77-.33,7.7-.49,11.87-.74.25-1.47.25-2.37,0v-18.51l2.29.16c.49,0,.57,1.39.82,1.8l6.72,11.38,6.96-11.46c.25-.41.33-1.56.9-1.72s1.23,0,2.05,0v18.43c0,.49-2.05.57-2.05-.33v-.08Z"/>
        <path class="st6" d="M351.23,128.62c-4.09,1.39-8.35.57-11.87.66v-18.67h9.25c4.26,0,7.45,4.09,8.03,7.7s-.82,8.68-5.4,10.24v.08ZM351.15,126.08c2.54-1.31,3.36-4.18,3.28-6.31-.08-2.13-1.15-4.83-3.52-5.9s-5.73-1.23-9.01-.66v13.68c3.28.57,6.39.66,9.34-.82h-.08Z"/>
        <path class="st6" d="M250.34,110.85c5.73-1.88,10.73,1.15,12.45,6.14s-.74,10.81-5.98,12.2-10.32-.57-12.12-5.32c-1.8-4.75.08-11.06,5.73-12.94l-.08-.08ZM250.18,113.72c-4.18,1.97-4.42,7.12-3.03,9.99,1.97,3.85,6.39,4.18,8.93,3.19,4.67-1.72,5.32-6.55,4.01-9.75-1.47-3.85-5.98-5.32-9.99-3.44h.08Z"/>
        <path class="st6" d="M373.99,110.85c5.57-1.88,10.65,1.47,12.28,6.22,1.72,5-.82,10.73-6.06,12.04-4.91,1.31-10.32-.49-12.04-5.32-1.72-4.83.16-11.06,5.81-13.02v.08ZM373.75,113.72c-4.26,1.88-4.5,7.04-3.03,9.99,1.47,2.95,6.31,4.09,8.84,3.19,4.75-1.64,5.4-6.47,4.09-9.75s-5.9-5.32-9.99-3.52l.08.08Z"/>
        <path class="st6" d="M475.21,121.33c-2.78-.16-5.16-.57-8.19,0s-2.05,4.5-.49,5.32c2.87,1.39,6.63.33,9.58.57.41.16.57,1.56.16,2.05l-12.86.16v-18.83c-.08,0,12.61,0,12.61,0v2.46l-9.09.25c-1.97,0-1.88,5.08,0,5.57,2.87.74,5.4.16,8.11,0-.16.98-.16,1.47,0,2.46h.16Z"/>
        <path class="st6" d="M227.9,111.02c5.57-2.13,10.89,1.06,12.61,5.73,1.8,5.08-.49,10.73-5.65,12.28-5.16,1.56-10.4-.33-12.28-5s0-10.97,5.32-13.1v.08ZM227.82,113.88c-4.18,2.29-4.5,7.29-2.29,10.48s6.22,3.77,9.25,2.21,4.67-6.55,3.11-9.75c-1.8-3.69-6.22-5.08-10.07-2.95Z"/>
        <path class="st6" d="M331.41,110.93c.49-.41,1.72-.49,2.7-.33l-.16,10.15c0,4.83-2.21,8.35-6.8,8.84-4.09.41-8.52-1.72-8.6-6.55l-.25-12.45h2.54v11.22c0,3.28,2.13,5.4,4.91,5.65,2.78.25,5.65-2.05,5.65-5.65v-10.89Z"/>
        <path class="st6" d="M218.81,129.28c-4.09,1.06-4.09-5-7.53-5.65-1.39-.33-4.26-.82-4.5,1.56s1.15,4.26-2.21,4.59l-.25-19.24,8.93.16c3.03,0,4.91,2.95,5.49,5.4s-.82,5.24-3.6,7.12l3.69,5.98v.08ZM213.32,121.17c2.21-.66,2.95-2.46,2.95-4.01s-.9-3.28-2.78-3.77-4.5-.66-6.72-.16v8.27c2.29.16,4.26.33,6.55-.33h0Z"/>
        <path class="st6" d="M439.84,129.28c-5.4,1.31-11.38-.98-9.66-3.36,1.72-2.37.57-.33,1.72-.08,2.13,2.13,8.03,2.78,9.17-.74s-9.09-2.78-10.73-7.62c-1.64-4.83,0-4.91,2.37-6.22s7.21-1.23,9.91.49.16,1.97-.25,2.13c-.82.33-9.83-3.52-9.75,1.97,0,4.34,10.56,2.21,11.06,8.03.25,2.54-1.15,4.67-3.93,5.32l.08.08Z"/>
        <path class="st6" d="M312.58,127.31c-1.23-4.18-10.65-2.95-11.46-1.39s-1.23,4.26-4.18,3.28l7.53-16.95c.57-1.39.82-1.8,2.13-1.8s1.47.74,2.05,2.05l7.45,16.87c-.41.33-1.72.16-2.29.08s-1.06-1.56-1.23-2.21v.08ZM310.37,122.56l-3.77-8.6c-2.05,3.03-2.78,5.57-3.85,8.68,2.95.41,5,.41,7.7,0l-.08-.08Z"/>
        <path class="st6" d="M148.47,111.02c0-.57,1.88-.57,2.29-.16l-.41,13.84c-.08,3.69-4.09,5-7.29,5s-7.04-1.47-7.21-5l-.49-14h2.54v12.04c0,3.28,2.95,5,5.9,4.75s4.59-2.46,4.59-5.73v-10.65l.08-.08Z"/>
        <path class="st6" d="M406.83,129.2c-3.77.98-7.29,0-10.15-1.39.41-1.31.25-1.47.41-1.64.66-.9,9.34,4.09,10.97-1.06,1.64-5.16-9.17-3.03-10.65-7.29-1.47-4.26,0-5.4,2.46-6.55s6.39-.98,9.25.25c2.87,1.23.49,2.7-.16,2.54-4.91-1.23-9.25-1.97-9.5,1.56,0,1.15.66,2.37,2.13,2.78l5.08,1.47c2.29.66,3.69,2.13,3.85,4.09s-.9,4.59-3.69,5.24Z"/>
        <path class="st6" d="M176.47,129.44l-2.46.16v-16.21c-2.46-.66-4.01-.41-6.06-.33v-2.54h14.99v2.62c-2.46-.25-4.01-.41-6.31.16v16.13h-.16Z"/>
        <path class="st6" d="M428.7,110.69l-7.04,12.2c-.98,1.8-.33,4.26-.33,6.22-.9.33-1.47.33-2.46,0,0-1.88.66-4.34-.33-6.06l-6.63-11.96c-.16-.66,2.29-.9,2.78-.08l5.65,9.34,5.98-9.58c.25-.41,2.05-.41,2.46-.16l-.08.08Z"/>
        <path class="st6" d="M454,127.23c0,1.15-.16,1.72-.41,1.97-.57.57-2.05.33-2.05-.66v-15.15c-2.29-.66-4.18-.41-6.31-.33v-2.54h14.99v2.46c-2.05,0-3.93-.33-6.22.33v13.92Z"/>
        <path class="st6" d="M168.53,127.39c.49,0,.33,1.88-.16,1.88h-12.04v-18.59c1.15-.16,2.13-.16,2.54.25v16.13l9.75.33h-.08Z"/>
        <polygon class="st6" points="188.18 129.44 185.65 129.6 185.81 110.61 188.18 110.61 188.18 129.44"/>
        <polygon class="st6" points="363.27 129.44 360.89 129.69 360.81 110.61 363.35 110.61 363.27 129.44"/>
        <path class="st6" d="M199.73,122.97h-6.72c-.41-1.8.49-2.05,1.06-2.05h2.87l2.78.08c.49,0,.49,1.56,0,1.97Z"/>
      </g>
    </g>
    <g class="st5">
      <path class="st3" d="M286.79,195l13,10-13,10"/>
      <path class="st2" d="M302.39,195l13,10-13,10"/>
      <path class="st4" d="M318,195l13,10-13,10"/>
    </g>
  </g>
</svg>