<?xml version="1.0" encoding="UTF-8"?>
<svg id="Ebene_1" xmlns="http://www.w3.org/2000/svg" version="1.1" viewBox="0 0 703.7 567.8">
  <!-- Generator: Adobe Illustrator 30.5.1, SVG Export Plug-In . SVG Version: 2.1.4 Build 3)  -->
  <defs>
    <style>
      .st0 {
        fill: #010101;
      }

      .st1 {
        fill: #f0831d;
      }

      .st2 {
        fill: #cfcece;
      }

      .st3 {
        fill: #804117;
      }

      .st4 {
        fill: #bc631a;
      }

      .st5 {
        fill: #d46319;
      }

      .st6 {
        fill: #e1882e;
      }
    </style>
  </defs>
  <path class="st3" d="M308.4,203.3c0-1.4-.6-2.8-1.5-4.3l-18.1-31.8-22.3-4.3c-2.7-.5-4.7.7-6.2,2.7-5.5,7.2-11,13.9-17.2,20.5s-2.8,4.4-5.3,5.3l3.7-13.3,5.7-19.6,34.6-27.6,36.6-8.1,27.1,50.9-3.9,12.9-26,14.9c-2.1,1.2-5.1,2.9-7.2,1.8Z"/>
  <path class="st3" d="M379.9,391.7l-74.6,30.6,36.4-52,57.2-28.6c2.6-1.3,4.2-3.6,7.8-3.7l-.8,28.1-.7,14.3-25.3,11.4Z"/>
  <path class="st6" d="M522.1,290.9l-10.8-10.5c46.3-48.5,46.2-123.4.3-172.4l10.3-10.4c12.5,13.6,23.3,28.3,29.9,45.9,19,51.1,8.9,108-29.8,147.3Z"/>
  <path class="st4" d="M351.5,148.9l-15.6-59.7c0-4.3,1.4-9.4,2.5-13.5l9.5-35.7c1.7-6.3,5.4-11.2,8.8-17.3,1.3,2.7,3.9,5.1,4.4,8.2l13.8,85.7-10.2,31.9c-.8,2.6-5.7,5.4-8.1,5.9-2.5,0-4.5-3.5-5-5.5Z"/>
  <path class="st3" d="M387.7,136.6l-4.9-14.6c-.5-1.5-.9-2.6-1.8-3.1.5-1.7,1-3.2.6-5.6l-4.9-29.1-8.9-55.3-10.3-17.9c-4.8,4.2-6,9.6-9,14.4s-6.3,11.9-7.4,19.2l-4.1,29.4c-.2,1.1.3,1.9,1.3,1.7-1.1,4-2.4,9.2-2.5,13.5l15.6,59.7-27-31.1,1.5-11.2,3.4-22c2.7-17.7,4.4-35.3,9.8-52.4l14.4-30.3c3.3-6.9,8.9,6.2,18.1,13.3l12.4,43.5,18,62.4-5.8,18.6c-2.7-.5-6.9-1.1-8.6-3.1Z"/>
  <path class="st3" d="M383,300.4c-.3.2-.7,1-.3,1.5l-25.1,12.8-38.9,19.2c-2.1,1-4.5,2.1-4.9,4.2,0-6.2-8.2-7.4-18.4-15.7s-7.3-4-10-8.4l16.3-18.5c1.6-1.8,3.2-3.3,2.7-5.4,9.6-.5,18.7-3.7,28.7-6.8l49.8,17Z"/>
  <path class="st4" d="M313.9,338.1c.4-2.1,2.8-3.2,4.9-4.2l38.9-19.2,25.1-12.8-11,16.8-45.6,63.3-26.1,36.1,13.8-79.9Z"/>
  <path class="st4" d="M247.3,158.4l-5.7,19.6-9.4-1.2-.3,8.4c-.1,3-2.2,8.9,0,11,3,1.6,5.4-3,6-4.9,2.5-.9,3.5-3.4,5.3-5.3,6.2-6.6,11.7-13.2,17.2-20.5,1.5-2.1,3.5-3.2,6.2-2.7l22.3,4.3,18.1,31.8c.9,1.6,1.5,3,1.5,4.3l-35.6-19.4,2.5-5.3-11.2-5.9-8.4,21.9c-1.3,3.4-2.4,8.8-5.2,10.6l-48.6,31.1-14.4,9.2c-.7.4-1.2,1.4-1.3,2-2.3.2-4.2,1-7.1-.1l-12.5-4.6,8.4-5.9,53.2-32.7,3.1-29.2,16.1-16.6Z"/>
  <path class="st3" d="M351.7,357.3l29.3-42.5,9.3-13.4-5.7-25.8c2.6-2.5,6.2.4,8.7.8l18.3-8,12.3,18.9-10.8,38.4-31.2,16.5c-9.9,4.9-18.1,11.3-30.3,15.1Z"/>
  <path class="st6" d="M486.7,255.9c24.7-25.5,31.6-62.7,18.3-95.8-4.3-10.7-9.9-19.5-18-27.6l10.8-10.5c38.8,40.2,38.7,104.4,0,144.5-3.1-3.8-5.9-6.7-11.1-10.7Z"/>
  <path class="st4" d="M353.2,263.7l7.4,9,14.8,16.8c2.5,2.9,4.6,6,7.9,7.6.2,1.1,1,2.3-.2,3.3l-49.8-17c-10,3.1-19.1,6.3-28.7,6.8-4.3-8.4-8.2-16.8-11.1-25.6l37.4,17.6-12-51.1-4.2-14.2-1.6-2.7c5.8,3.3,13.5,6.2,18.9,10.9l16.9,33.1c1.4,2.7,3,3.8,4.5,5.6Z"/>
  <path class="st6" d="M413.6,131.6l17.5,6.8c2.1.8,4.3,1.2,6.2,2.7l-11.8,37.7,7,17.4-13.1,37.5c-.6,1.7-2.7,3.2-4.2,4l-16.9,9.5-25.3-9-9.3-20.5,12.2-38.6,19.5-11.3,11.8-37.8,6.4,1.6ZM419.8,174.2l9-29-17.1-6.4-8.7,29.9,16.8,5.5ZM371.2,216.9c1.3,4.7,3.3,11.1,6.7,15.1l16.3,7c2.2.9,4.6.6,6.4-.5l12.5-7.3,11.9-34c.9-2.5-1.3-5-2.1-6.8l-3.9-9-20.7-7.4-16.6,10.1-10.6,32.8Z"/>
  <path class="st6" d="M384.2,167.2c0-1.8-.2-3.4-1.8-4.5s-3.4-1.1-5.4.1l-11.7,7.5c-1.3.9-1.9,1.9-2.5,3.9l-14.4,46.4,14.1,27.6,30.3,10.4,30.4-16.3,16.8-48.1-7-18.4c-1.1-2.8,1.7-6.4,2.6-9.2l11.9,27.5-18.3,52.5-36.1,19.3-35.3-12.2-17-33.4,16.9-54.4,12.5-8,15.8-9.9c2.3-1.4,6.7-2.8,8.1.2-2.6,13.2-1.7,13.8-10,18.6Z"/>
  <path class="st4" d="M298.1,205.5c.5,1.6-.1,3-1.1,4.8l-12.6,23-2.5,5.9c-.5,1.1-.6,2.6,0,4l9.2,20.6-27.3-5.8-19.7-15.7c-.8-.6-1-1.7-1.1-1.9l8.4-21.6c1-2.7,1.8-5,4.2-6.2l18.9-1.6,19-7.3c1.8-.7,3.3,1,4.5,1.7Z"/>
  <path class="st6" d="M293.4,264.5l-2.2-.7-9.2-20.6c-.7-1.4-.5-2.9,0-4l15.7-13.1,15.3-12.1,1.6,2.7,4.2,14.2,12,51.1-37.4-17.6Z"/>
  <path class="st3" d="M446.8,294.9l-12.6-17.3-11-15.6,13.7-8.6,8-22.7,12.6,31.9,22.3,55.4c-3.9,0-5.2-3.2-7.6-4.9l-25.3-18.1Z"/>
  <path class="st6" d="M435.5,125.7l-18.6-7.3-8-3.2.5-26.7-10.7-29.1-9.7-8.5c-2.2-4-3-7.8-4-13l32.8,14.7,16.9,15.6,9.6,29.3-2.5,29.6c-2.1,0-4.3-.7-6.3-1.5ZM416.5,108.4c0,.7,0,2.3.8,2.6l18.6,7,.9-19.9-8.7-27.9-12-9.9c-3-2.5-7-4.2-10.9-5.8l11.9,33.1-.7,20.8Z"/>
  <path class="st6" d="M462.3,230.3c20.8-21.4,19.7-50.8.2-73l10.3-10.4c25.5,24.9,26.4,64.9,3.1,91.4-.7.8-1.2,2.4-1.9,2.7s-2.2-.3-3-1.2l-8.6-9.6Z"/>
  <path class="st3" d="M314.6,116.6c-6.3,1.9-12.8,4-19.3,4.2s-1.7-5.3-2.1-7l-20.6-94.6c15.5,28.9,28.7,57.3,41.9,86.4,1.4,3,0,7,0,11Z"/>
  <path class="st4" d="M268.6,374.4c2.9.2,4.5-2.5,6.6-4.5l14.3-13.3,18.6-16-14.3,80.1-22.9-40c-1.1-2-2.2-3.9-2.3-6.4Z"/>
  <path class="st3" d="M255.7,212.7c-2.5,1.2-3.2,3.5-4.2,6.2l-8.4,21.6-17.2,2c-13.6,1.6-26.6,4.2-39.7,5.1.1-.6.6-1.6,1.3-2l14.4-9.2,48.6-31.1c.6,2.2.5,4.6,1.8,6.6s2.6.8,3.4.8Z"/>
  <path class="st3" d="M308.1,340.6l-18.6,16-14.3,13.3c-2.1,2-3.7,4.7-6.6,4.5l6.2-41.5-4.3-13.4c5-2.5,9.9-.4,14.1,2.6l22.8,16.1c.6.4.8,1.5.6,2.5Z"/>
  <path class="st4" d="M280.3,124.2l-16-29.4c-1-1.8-2-3.3-3.8-3.8l1-16.1,4-35.9c.3-2.9.3-5.9,2.7-8.3l14.3,74.3c1.3,6.5,2.7,15-2.1,19.1Z"/>
  <path class="st3" d="M267.6,316.4l-58,5c-6.9-.8-13.6-5.7-19.7-8.5s-11.7-1.9-13.5-12.9l33.5,10.6c8.6-3.2,17-2.7,26.1-1.1l24.3,4.3,7.3,2.6Z"/>
  <path class="st3" d="M144.1,257.1l19.7,2.2c1,0,10.1-4.8,11.6-6s.6-1.3,1.1-1.8c4.1,4.8,4,12.8-1.2,17.4-4.7,9.8-15.4-8.6-19.2-3.4s2.9,11.7,12,11.9c-.4,3.5-2.5,4.2-4.5,4.9s-4-.2-6-1.3c-8.6-4.7-10.9-13.6-13.6-23.9Z"/>
  <path class="st3" d="M280.3,124.2l-16.5,14c-2-8.9-2.1-17.4-2.5-26.4l-.8-20.7c1.8.4,2.8,2,3.8,3.8l16,29.4Z"/>
  <path class="st3" d="M365.3,170.4l5.6,4.5-11.3,37.7c-2.5,8.3-6.8,4.2-11.2,8.1l14.4-46.4c.6-2,1.2-3,2.5-3.9Z"/>
  <path class="st3" d="M383.2,297.1c-3.3-1.6-5.4-4.7-7.9-7.6l-14.8-16.8-7.4-9c3.2-.6,6,1.1,9,2.2l15.8,6,5.2,25.3Z"/>
  <path class="st3" d="M312.9,214.1l-15.3,12.1-15.7,13.1,2.5-5.9,12.6-23c.9-1.7,1.6-3.1,1.1-4.8l14.9,8.5Z"/>
  <path class="st2" d="M135.4,566.7l-.5-14.3c-3.7,3.7-5.4,8.2-8.3,13.1l-8.7-12.2c-1.4,5.2-.7,9-.6,13.9l-2.9.2v-22.8c1,0,1.9-.2,2.4,0s.9,1.4,1.3,2l8,14,8.3-13.9c.3-.5.4-1.9,1.1-2.1s1.4-.1,2.7,0v22.6c-.1.6-2.6.7-2.6-.3Z"/>
  <path class="st2" d="M327.1,567.1l-.6-14.7c-4.9,4.8-7.9,15-9.9,11.9l-7.6-11.8-.6,14.5c-.7.4-2.3.4-2.7,0v-22.5c1.1,0,2.1-.2,2.6,0s.8,1.6,1.1,2.1l8.3,13.9,8.3-13.9c.3-.4.4-1.9,1-2.2s1.5,0,2.6,0v21.8c.1.7-1.1,1.7-2.5.8Z"/>
  <polygon class="st3" points="435.5 125.7 431.1 138.4 413.6 131.6 416.9 118.4 435.5 125.7"/>
  <path class="st2" d="M588,566.7l-.6-14.3-8.9,13.1-8.6-12.9c-1.3,4.6-.4,9.4-.6,14.5-.9.3-1.8.3-2.9,0v-22.6s2.8.2,2.8.2c.6,0,.7,1.7,1,2.2l8.2,13.9,8.5-14c.3-.5.4-1.9,1.1-2.1s1.5,0,2.5,0v22.5c0,.6-2.5.7-2.5-.4Z"/>
  <path class="st2" d="M408.3,566.4c-5,1.7-10.2.7-14.5.8v-22.8c0,0,11.3,0,11.3,0,5.2,0,9.1,5,9.8,9.4s-1,10.6-6.6,12.5ZM408.2,563.4c3.1-1.6,4.1-5.1,4-7.7s-1.4-5.9-4.3-7.2-7-1.5-11-.8v16.7c4,.7,7.8.8,11.4-1Z"/>
  <path class="st6" d="M176.5,251.5c-.5.5-.6,1.4-1.1,1.8-1.5,1.2-10.6,6.1-11.6,6l-19.7-2.2c4.3-4.3,10.4-7.6,16.3-10.7l16.1,5.1Z"/>
  <path class="st3" d="M273.7,304.1h-33.8s31.9-9.9,31.9-9.9c3.3-1,6.4.4,8.9,2.6l-7,7.3Z"/>
  <path class="st2" d="M285.1,544.8c7-2.3,13.1,1.4,15.2,7.5s-.9,13.2-7.3,14.9-12.6-.7-14.8-6.5.1-13.5,7-15.8ZM285,548.2c-5.1,2.4-5.4,8.7-3.7,12.2,2.4,4.7,7.8,5.1,10.9,3.9,5.7-2.1,6.5-8,4.9-11.9-1.8-4.7-7.3-6.5-12.2-4.2Z"/>
  <path class="st2" d="M436.1,544.7c6.8-2.3,13,1.8,15,7.6,2.1,6.1-1,13.1-7.4,14.7-6,1.6-12.6-.6-14.7-6.5s.2-13.5,7.1-15.9ZM435.8,548.2c-5.2,2.3-5.5,8.6-3.7,12.2s7.7,5,10.8,3.9c5.8-2,6.6-7.9,5-11.9s-7.2-6.5-12.2-4.3Z"/>
  <path class="st2" d="M559.7,557.5c-3.4-.2-6.3-.7-10,0s-2.5,5.5-.6,6.5c3.5,1.7,8.1.4,11.7.7.5.2.7,1.9.2,2.5l-15.7.2v-23c-.1,0,15.4,0,15.4,0v3s-11.1.3-11.1.3c-2.4,0-2.3,6.2,0,6.8,3.5.9,6.6.2,9.9,0-.2,1.2-.2,1.8,0,3Z"/>
  <path class="st2" d="M257.8,544.9c6.8-2.6,13.3,1.3,15.4,7,2.2,6.2-.6,13.1-6.9,15s-12.7-.4-15-6.1,0-13.4,6.5-16ZM257.6,548.4c-5.1,2.8-5.5,8.9-2.8,12.8s7.6,4.6,11.3,2.7,5.7-8,3.8-11.9c-2.2-4.5-7.6-6.2-12.3-3.6Z"/>
  <path class="st6" d="M309.4,77.6c-2.3-2.5-2.6-4.8-4-7.9l23.2-20.2c-.4,3.4-.5,7.8-2.3,10.6l-16.9,17.4Z"/>
  <path class="st2" d="M384.1,544.8c.6-.5,2.1-.6,3.3-.4l-.2,12.4c0,5.9-2.7,10.2-8.3,10.8-5,.5-10.4-2.1-10.5-8l-.3-15.2h3.1c0,0,0,13.7,0,13.7,0,4,2.6,6.6,6,6.9s6.9-2.5,6.9-6.9v-13.2Z"/>
  <path class="st2" d="M246.6,567.2c-5,1.3-5-6.1-9.2-6.9-1.7-.4-5.2-1-5.5,1.9s1.4,5.2-2.7,5.6l-.3-23.5,10.9.2c3.7,0,6,3.6,6.7,6.6s-1,6.4-4.4,8.7l4.5,7.3ZM240,557.3c2.7-.8,3.6-3,3.6-4.9s-1.1-4-3.4-4.6-5.5-.8-8.2-.2v10.1c2.8.2,5.2.4,8-.4Z"/>
  <path class="st2" d="M516.5,567.2c-6.6,1.6-13.9-1.2-11.8-4.1s.7-.4,2.1-.1c2.6,2.6,9.8,3.4,11.2-.9s-11.1-3.4-13.1-9.3,0-6,2.9-7.6,8.8-1.5,12.1.6.2,2.4-.3,2.6c-1,.4-12-4.3-11.9,2.4,0,5.3,12.9,2.7,13.5,9.8.3,3.1-1.4,5.7-4.8,6.5Z"/>
  <path class="st2" d="M361.1,564.8c-1.5-5.1-13-3.6-14-1.7s-1.5,5.2-5.1,4l9.2-20.7c.7-1.7,1-2.2,2.6-2.2s1.8.9,2.5,2.5l9.1,20.6c-.5.4-2.1.2-2.8.1s-1.3-1.9-1.5-2.7ZM358.5,559.1l-4.6-10.5c-2.5,3.7-3.4,6.8-4.7,10.6,3.6.5,6.1.5,9.4,0Z"/>
  <path class="st2" d="M160.7,544.9c0-.7,2.3-.7,2.8-.2l-.5,16.9c-.1,4.5-5,6.1-8.9,6.1s-8.6-1.8-8.8-6.1l-.6-17.1h3.1c0,0,0,14.7,0,14.7,0,4,3.6,6.1,7.2,5.8s5.6-3,5.6-7v-13Z"/>
  <path class="st2" d="M476.3,567.1c-4.6,1.2-8.9,0-12.4-1.7.5-1.6.3-1.8.5-2,.8-1.1,11.4,5,13.4-1.3s-11.2-3.7-13-8.9,0-6.6,3-8,7.8-1.2,11.3.3.6,3.3-.2,3.1c-6-1.5-11.3-2.4-11.6,1.9,0,1.4.8,2.9,2.6,3.4l6.2,1.8c2.8.8,4.5,2.6,4.7,5s-1.1,5.6-4.5,6.4Z"/>
  <path class="st2" d="M194.9,567.4l-3,.2v-19.8c-3-.8-4.9-.5-7.4-.4v-3.1s18.3,0,18.3,0v3.2c-3-.3-4.9-.5-7.7.2v19.7Z"/>
  <path class="st4" d="M387.7,136.6c-4.5,3-9,6.2-14.3,7.6l7.6-25.3c.9.6,1.3,1.7,1.8,3.1l4.9,14.6Z"/>
  <path class="st2" d="M502.9,544.5l-8.6,14.9c-1.2,2.2-.4,5.2-.4,7.6-1.1.4-1.8.4-3,0,0-2.3.8-5.3-.4-7.4l-8.1-14.6c-.2-.8,2.8-1.1,3.4-.1l6.9,11.4,7.3-11.7c.3-.5,2.5-.5,3-.2Z"/>
  <path class="st2" d="M533.8,564.7c0,1.4-.2,2.1-.5,2.4-.7.7-2.5.4-2.5-.8v-18.5c-2.8-.8-5.1-.5-7.7-.4v-3.1s18.3,0,18.3,0v3c-2.5,0-4.8-.4-7.6.4v16.9Z"/>
  <path class="st2" d="M185.2,564.9c.6,0,.4,2.3-.2,2.3h-14.7c0,0,0-22.7,0-22.7,1.4-.2,2.6-.2,3.1.3v19.7c0,0,11.9.4,11.9.4Z"/>
  <path class="st4" d="M384.2,167.2l-13.3,7.7-5.6-4.5,11.7-7.5c2-1.3,3.9-1.1,5.4-.1s1.9,2.7,1.8,4.5Z"/>
  <path class="st4" d="M285.7,199.2c-3.9,2.2-7,4.5-11,4.8s-4-3.1-4.5-4.7.6-4.7,2-7.3l13.5,7.2Z"/>
  <polygon class="st2" points="209.2 567.4 206.2 567.6 206.3 544.5 209.2 544.4 209.2 567.4"/>
  <polygon class="st2" points="423 567.5 420.1 567.7 420 544.5 423.1 544.4 423 567.5"/>
  <path class="st3" d="M175.1,298.3c-1.1,2.9-2.4,4.5-5.3,6.1l-11.3-17.3,16.5,11.2Z"/>
  <path class="st2" d="M223.3,559.5h-8.2c-.5-2.2.6-2.5,1.3-2.5h3.5s3.4.1,3.4.1c.6,0,.6,1.9,0,2.4Z"/>
  <polygon class="st3" points="480 325.2 410.5 377.3 444.4 300.8 480 325.2"/>
  <path class="st6" d="M241.6,178l-3.7,13.3c-.5,2-3,6.5-6,4.9-2.3-2.1-.2-8,0-11l.3-8.4,9.4,1.2Z"/>
  <path class="st3" d="M422.9,190.5c.8,1.8,2.9,4.3,2.1,6.8l-11.9,34-12.5,7.3c-1.8,1-4.2,1.4-6.4.5l-16.3-7c-3.4-4-5.4-10.4-6.7-15.1l49-26.1c1-.5,1.9-.6,2.8-.3Z"/>
  <path class="st4" d="M422.9,190.5c-.9-.3-1.8-.2-2.8.3l-49,26.1,10.6-32.8,16.6-10.1,20.7,7.4,3.9,9Z"/>
  <polygon class="st4" points="419.8 174.2 403 168.6 411.7 138.8 428.8 145.2 419.8 174.2"/>
  <path class="st4" d="M436.8,98c-6.5,3.7-13.1,8-20.3,10.3l.7-20.8-11.9-33.1c3.9,1.6,7.8,3.3,10.9,5.8l12,9.9,8.7,27.9Z"/>
  <path class="st3" d="M416.5,108.4c7.2-2.3,13.9-6.6,20.3-10.3l-.9,19.9-18.6-7c-.9-.3-.9-1.9-.8-2.6Z"/>
  <g>
    <g>
      <path class="st2" d="M529.9,495.2l-25.3-.2c-.8-3.1-.7-6.2,0-9.7l34.7-.3c2,0,3.3,1.5,3.3,3.5v22c0,5.5-4.1,9.5-9.8,9.5h-40.2c-9.1,0-16.4-6.4-17.7-15.5-1.3-9.3-1.4-18.8.1-28.1,1.6-9.8,9.5-16.1,19.3-16.1l47.1-.3c.8,4.3.7,7.9.1,12.1l-43,.3c-6.3,0-10.9,4.2-10.9,10.4v16.4c0,5.5,4.2,9.5,9.8,9.6l28.5.2c2.2,0,4-1.7,3.9-3.7v-9.9Z"/>
      <path class="st2" d="M380.6,504.1c-1.8,9.4-8.8,15.6-18.1,15.7l-48.6.4v-60.1c-.1,0,47.1.1,47.1.1,10,0,17.4,6.5,19.5,16.1,1.5,9.1,1.5,18.2.1,27.8ZM368.1,498.5v-15.7c-.3-6.2-5-10.4-11.3-10.5l-29.9-.2v36.7s30.4,0,30.4,0c5.8,0,10.3-3.9,10.8-10.3Z"/>
      <path class="st2" d="M447.7,519.7l-38.5.2c-8.7,0-15.4-5.9-16.8-14.5-1.6-9.6-1.5-19.6-.1-29.3,1.2-9.1,8.5-15.7,17.8-15.7h35.5c9.9-.1,17.1,7.5,18.2,17.3s1,17.7,0,26.4-7,15.6-16.2,15.7ZM442.3,508.6c5.1,0,8.2-4.1,8.7-8.4v-18.7c0-4.8-3.5-9-8.6-9h-28.4c-5.4-.1-9,4.2-9.1,9.3v17.3c0,5,3.4,9.6,8.8,9.6h28.5Z"/>
      <path class="st2" d="M49.5,520.1l-49,.2c-.7-4.1-.7-7.5.4-11.3h44.1c4.1,0,6.1-2.9,5.8-6.9s-.1-3.7-1.2-5-2.5-1.7-4.3-1.7l-31.8-.4c-6.9,0-12.7-4.7-12.8-11.4l-.2-10.9c-.1-6.6,5.7-12.2,12.8-12.3l47.2-.4c1.5,4.1,1.4,8.1.2,12.1l-43.2.4c-3.2,0-3.9,3.7-4,5.9s.6,6.2,4.2,6.3l33.1.6c8.6.2,13.6,6.4,13.3,14.8s.4,10.3-2.6,14.7c-2.3,3.5-7.1,5.3-12,5.3Z"/>
      <path class="st2" d="M140.3,520.2h-11.8c-3,.2-4.9-1.3-6.5-3.4l-34-44.5-.6,47.7c-4.2.5-8.1.7-12.5,0v-54.3c0-3.2,1.9-5.6,5.1-5.5h13.1c3.8,1.7,5.4,5.4,7.8,8.5l30.5,39.8.7-48c4.5-.5,8.3-.7,12.5.3v54.6c0,2.5-1.7,4.9-4.4,4.9Z"/>
      <path class="st2" d="M289.2,501.2l-35.9.3-.4,18.2c-4.1.9-8.4.9-12.9.2v-59.8c0,0,48.7,0,48.7,0,7.7,0,13.8,4.8,15.3,12,1.3,5.9,1.3,11.9,0,17.7s-7.1,11.2-14.7,11.3ZM291.6,480.2c.2-5.1-2.5-8.1-7.2-8.1h-31.6c0,.1,0,18.4,0,18.4h30.4c2.9,0,5.5-.9,6.8-2.7s1.4-4.5,1.5-7.6Z"/>
      <path class="st2" d="M211.3,507.6l-39.1-.2-6.9,12.6c-4.9.1-9.1.8-13.9-.6l30.5-56.7c2-3.6,6.4-2.7,9.6-3,4.7-.3,8,.4,10.3,4.6l30.3,55.1c-5,1.2-9.7.8-14.4.3l-6.5-12.2ZM205.8,497.6l-14.7-25.9-14,26.2,28.7-.3Z"/>
    </g>
    <g id="Generatives_Objekt">
      <path class="st0" d="M574.1,518.8h0s0,0,0,0Z"/>
      <path class="st1" d="M703.7,468.6v.4c0,0,0,.2,0,.2v38.1c0,0,0,.2,0,.3v.3s0,0,0,0v.4c-.9,4.9-5.6,9.9-11,10.4.1,0,.1,0,0,0h-.4s0,0,0,0h-.5s0,0,0,0h-116.6c-2.3-.2-4.5-1.1-6.5-2.3,0,0-.2,0-.2,0s-.1,0-.2,0c-2.6-1.9-4.2-4.3-5.2-7.4s0-.1,0-.2,0-.1,0-.2c0,0,0,0,0,0-.2,0-.2,0,0-.2v-.2c-.3,0-.3,0,0-.2v-.3c-.3,0-.3-.2,0-.2v-.3c-.1,0-.1,0,0,0,0-.2-.1-.5-.2-.7v-35.6c0-.2,0-.2,0,0,0-.5,0-.9.2-1.4l.3-1.5c0,0,0,0,0,0v-.2s0,0,0,0c.3-1,.8-1.9,1.3-2.7h.2c.5.2.9.4,1.5.6.2.3.4.4.7.3.3,0,.4.2.6.5,0,0,.9-.9.9-1,0-.2-.9-.4-1-.4-.4-.2-.9-.4-1-.9-.2-.8,1.1-1.1.8.1.6-.2,1.2-.2,1.9,0l.8.2c.8-.4,1.5-.6,2.3-.7h122.4c.6,0,1.1.2,1.7.4h1.2c.6.1.9.5.4.9,0,0,1.1,1.2,1.2,1.2.3,0,.2-.1,0-.3-.4-.7-.4-1.2,0-1.9,0-.2,0-.4,0-.6.6,0,1.1-.1,1.7,0l-.3-.2c-.6-.1-.8-.4-.5-.8-.8-.8-1.8-1.5-2.8-2.1v-.2c.2,0,.3,0,.3,0s.1,0,.2,0c3.1,1.7,5.5,5.1,6.2,8.5Z"/>
      <path class="st0" d="M570.6,513.4c-2.5-1.4-3.7-4.2-3.9-7,0-12.3,0-25,0-37.3.1-.8.3-1.5.7-2.2,1-1.7,2.8-3.1,4.9-3.1h122c1.4.2,2.6.8,3.6,1.8,1.6,1.8,2.4,4,2.6,6.5v32.2c-.2,3.1-1.4,5.9-3.5,8.1s-2.8,2-4.7,2h-116.6c-1.3,0-2.6-.1-3.9-.5l-1.3-.5Z"/>
      <path class="st5" d="M575,518.8h-.9s0,0,0,0h-.3s0-.1,0-.1c-1.9-.4-3.6-1.1-5.2-2.2.3,0,.5.3.8.4l1.6.8c1.3.6,2.7.8,4,1.1Z"/>
      <path class="st5" d="M562.6,470.8v-.9s.1,0,.2,0c0-.3,0-.7.1-1s0-.8.3-1.1c0,.3-.1.6-.2.9l-.3,1.9c0,0,0,.2,0,.2s-.1,0-.1,0Z"/>
      <path class="st5" d="M562.7,507.1l-.2-.2v-.5c.1,0,.2.1.2.3v.5Z"/>
      <path class="st0" d="M703.7,469.3s0,0,0,0,0-.1,0-.2v.2Z"/>
      <path class="st5" d="M703.7,507.6s0,0,0,0,0-.1,0-.2v.3Z"/>
      <path class="st0" d="M692.3,518.8h0s0,0,0,0Z"/>
      <path class="st0" d="M703.7,507.9s0,0,0,0h0Z"/>
      <path class="st0" d="M691.7,518.8h0s0,0,0,0Z"/>
      <path class="st5" d="M564.6,464.8c-.5.7-.9,1.6-1.2,2.5s0,.2-.2.2c.4-1.2.9-2.4,1.7-3.4l-.4.7Z"/>
      <path class="st5" d="M562.9,508c0,0-.1-.2,0-.3.1,0,0,.2,0,.3Z"/>
      <path class="st5" d="M562.8,507.5c0,0,0-.2,0-.3.1,0,0,.2,0,.3Z"/>
      <path class="st5" d="M563,508.4c0,0-.2-.1,0-.2,0,0,0,.1,0,.2Z"/>
      <path class="st5" d="M563.2,467.7c0,0,0-.1,0-.2,0,0,0,0,0,.2s0,0,0,0Z"/>
      <path class="st5" d="M563,508.6c0,0-.1,0,0,0h0Z"/>
      <path class="st5" d="M570.6,513.4c-.2,0-.3-.1-.4-.2-2.2-1.4-3.2-3.8-3.5-6.4v-4c0,0,0-1,0-1-.1-.6-.1-1.2,0-1.8v-9.5s0-.7,0-.7v-20.7c.2-.8.3-1.8.8-2.2,0,.2,0,.3-.1.5-.3.7-.4,1.3-.5,2.1v36.8c.3,3.1,1.2,5.5,3.9,7.1Z"/>
      <path class="st5" d="M639.7,472.2s0,0-.2,0h-22.3c-.1,0-.2,0-.2,0h22.7Z"/>
      <path class="st1" d="M681.2,472.7s0,0,0,0l.8.3h0s1.1.6,1.1.6c0,0,0,0,0,0,1,.6,1.8,1.4,2.6,2.2,0,0,0,0,0,0,1.2,1.5,1.7,3.4,1.9,5.2v13.7c-.2,2.2-.9,4.3-2.3,5.9-1.1,1.3-2.6,2.2-4.3,2.7s-2.5.4-3.8.4h-14.9c-2.8,0-6.2-1.6-7.5-3.9-1.5-2.1-1.9-4.7-1.9-7.2v-11.6c.2-1.2.5-2.4,1.1-3.5,0,0,0,0,0,0l.3-.5s0,0,0,0c.8-1.4,1.9-2.4,3.2-3.3,0,0,0,0,0,0,1.3-.8,2.8-1.1,4.4-1.3h16.9c.8.1,1.5.2,2.3.4Z"/>
      <path class="st1" d="M681.7,496.3c-.8,1.4-2.3,1.9-3.8,1.9h-14.9c-1.2,0-2.3-.3-3.1-1.1s-1.5-2.2-1.5-3.6v-11.4c0-2.3,1.6-4.1,3.9-4.4h16c1.3,0,2.4.6,3.2,1.5s1,2.1,1,3.3v11.3c0,.8-.3,1.6-.7,2.3Z"/>
      <path class="st0" d="M680.6,495.8c-.5.7-1.3,1.1-2.1,1.1h-16c-1.8-.2-2.6-1.4-2.8-3.1v-11.9c0-.8.4-1.6,1.1-2.1.7-.5,1.4-.7,2.2-.7h15.3c1.6,0,2.8,1.3,2.8,2.8v11.8c0,.7-.2,1.3-.5,2Z"/>
      <path class="st5" d="M660.8,479.8c-.5.6-1,1.3-1,2.2v11.8c0,.7.3,1.3.6,1.9.6.7,1.4,1.1,2.3,1.1h15.6c.8,0,1.5-.4,2.1-.9s0-.3.2-.2c-.3.6-1.1,1.2-2,1.2h-16.4c-1.2,0-2.6-1.6-2.6-3.2v-11.6c0-.8.4-1.6.8-2.2s.3-.1.3-.2Z"/>
      <path class="st5" d="M681.2,472.7l-2.2-.3h-17.1c-1.3.2-2.5.4-3.6,1s-.4.3-.6.2c0,0,.1-.2.2-.2l.7-.3c1.1-.5,2.2-.6,3.4-.8h16.9s2.1.4,2.1.4c0,0,.1.1,0,.1Z"/>
      <path class="st5" d="M685.4,500.6l1.1-1.6c.7-1.3.9-2.6,1.2-4v-13.9c-.2-1.9-.8-3.7-1.9-5.2l.5.7c.8,1.1,1.5,3.6,1.5,4.9v13.2c0,1.1-.3,2-.6,3s-1,2.2-1.8,3.1Z"/>
      <path class="st5" d="M655,499.9c-.4-.4-.6-.9-.9-1.4l-.3-.7c-.6-1.4-.8-2.9-.7-4.5v-.5c0,0,0-3.7,0-3.7v-.7s0-2.2,0-2.2v-2.3s0-.6,0-.6v-2.3c.2-1.2.5-2.5,1.1-3.4-.5,1.3-.9,2.5-1,4v12.7c0,1,.2,1.8.4,2.7s.8,2,1.3,3Z"/>
      <path class="st5" d="M683.2,473.5c-.4,0-.8-.3-1.1-.5.4.1.8.2,1.1.5Z"/>
      <path class="st5" d="M654.4,476.9c.8-1.4,1.8-2.5,3.2-3.3,0,.2-.3.2-.4.4-1,.7-1.8,1.6-2.5,2.6s-.1.3-.3.4Z"/>
      <path class="st5" d="M685.8,475.8c-.3-.1-.4-.4-.6-.6-.5-.5-1-.9-1.6-1.3s-.3-.1-.3-.3c.9.3,1.9,1.4,2.6,2.2Z"/>
      <path class="st5" d="M654.4,477c0,.2,0,.4-.3.5,0-.2,0-.4.3-.5Z"/>
      <path class="st5" d="M682,473c-.3,0-.6,0-.8-.3.3,0,.5.2.8.3Z"/>
      <path class="st5" d="M678.3,502.4h-15.7c-3.5,0-6.6-2-7.7-5.3s-.5-2.2-.5-3.3v-11.5c0-1.1.2-2.2.5-3.2.6-1.9,1.9-3.5,3.7-4.4s2.5-1,3.9-1h16.1c2.2,0,4.3,1,5.8,2.6s1.7,2.8,1.9,4.5l.2,1.7v11.5c0,1.2-.3,2.4-.6,3.6-1.1,3.1-4.2,5-7.5,5Z"/>
      <path class="st5" d="M611.4,490.1c.4-1.1,1.1-2.8,1.1-4v-5.4c0-1.6-.6-3.1-1.4-4.5s-1.2-1.4-1.9-2.1-.5-.1-.5-.4c.5.3,1.1.7,1.5,1.2l1.1,1.5c.8,1.3,1.2,2.9,1.3,4.5v4.7c0,1.2-.6,3.6-1.3,4.4Z"/>
      <path class="st1" d="M647.8,489.8c-.9,1.7-2.4,2.9-4.3,3.7l7.2,10.3h-8.1s-6.6-9.3-6.6-9.3c0-.2-.3-.3-.7-.3h-11.9s0,0,0,0v-.2c0-.4-.2-.5-1.1-.4-.1,2.5-.2,5.1,0,7.6,0,.3,0,.8-.4.6,0,0-.2,0-.2,0,0-2.9,0-6,0-8.9h0c4.9-.1,9.9-.1,14.8,0,2.3,3.2,4.5,6.4,6.8,9.5h4.5s-6.6-9.4-6.6-9.4c0-.2,0-.3.2-.4,3.7-.6,5.9-3.5,6-7.2l.2-.3c0-.2.1-.2.3,0s0,2.6-.3,2.9v.7c-.3.3-.4.6-.3,1-.3.3-.2.4,0,.3.2,0,.4,0,.5,0Z"/>
      <path class="st1" d="M648.1,488.9s0,0,0,0c-.1.2-.2.4-.3.6,0,0,0,0,0,0h0c0,.1,0,.2,0,.2-.3.2-.8.3-1,0,0,0,.2-.2.3-.3.1-.3-.2-.5.1-1s0-.6.2-.8c.3-.5.3-.9.3-1.5v-1.2s-.1,0-.1,0h-.1c0-1.1,0-2.2,0-3.3h.2c.1-.2.1-.3,0-.4-.2,0-.2,0,0-.2,0,0,0-.1,0-.3,0-.9-.2-1.7-.4-2.6,0-.4.6-.6.9-.4s.7,2.5.7,3v5.3c-.2.9-.4,1.8-.6,2.7Z"/>
      <path class="st1" d="M617,472.2c7.5,0,15.2,0,22.7,0,1.4,0,2.7.3,4,.8,3.2,1.2,4.8,4.1,5.1,7.4v.7c0,0,0,4.3,0,4.3,0,1.2-.3,2.4-.7,3.5,0-.5.6-1.6.6-2.9v-5.1s-.4-2.4-.4-2.4c0-.2-.1-.3-.2-.4s-.5,0-.6,0c-.3.4,0,.8,0,1.2s.1,1.1.2,1.6v.2c0,0-.1,0-.2,0-.2-.4-.3-.8-.4-1.3l-.5-1.8c-.2-.4-.4-.8-.4-1.3,0-.2.2-.2.5-.2.8-.5-.6-1.8-.9-.7h-.2c0,0-.3,0-.3,0-.5-.5-1.1-.9-1.7-1.2l-.2-.3v-.2c1.4-.2.6-.8-.2-1-1.5-.3-3-.4-4.5-.5-7.4,0-14.7,0-22.1,0v-.2c-.2,0-.2-.3-.1-.3.1,0,.3,0,.4,0Z"/>
      <path class="st5" d="M616.6,472.5c.3,0,.2.3,0,.4,0,.1,0,.3,0,.4.3,0,.3.8,0,.9.1,0,.1.2,0,.3.3,0,.2.3,0,.4.1,0,.1.1,0,.2.3,0,.2.4,0,.4,0,0,0,.3,0,.4h.2c0,2.6,0,5.1,0,7.6h-.2c0,.3,0,.6,0,.8.3,0,.2.3,0,.4,0,.3,0,.7,0,1.1.3,0,.3.7,0,.7,0,5.7,0,11.5,0,17.2v-.2c2.1,0,4.2,0,6.2,0v-7.6s.2-.1.2-.1c0,0,0-.2,0-.3-.3,0-.3-.2,0-.3,0-.2,0-.2.2,0v1.8s0,.6,0,.6v6.4s-.9,0-.9,0h-5.8s0-31.4,0-31.4c0-.1,0-.2.1-.2v.3Z"/>
      <path class="st5" d="M623.4,494h2.5s2.8,0,2.8,0h.6c.5,0,1.1,0,1.6,0s.5,0,.8,0h2.8c.4,0,.7-.1,1.1,0h.3c0,0,.1.2,0,.3,0-.2-.2-.2-.4-.2h-12.4c0,.2,0,.3,0,.5-.2,0-.1-.3,0-.4-.2-.3.2-.5.3-.2Z"/>
      <path class="st1" d="M647.9,489.5c0-.2,0-.4.3-.6l-.3.6Z"/>
      <path class="st1" d="M647.8,489.7s0-.1,0-.1h0Z"/>
      <path class="st1" d="M646.3,476.7c-.2-.3-.4-.5-.6-.8,0-.3.2-.7.5-.7s.9.4,1,.9,0,.5-.2.6c-.2.1-.5,0-.7,0Z"/>
      <path class="st1" d="M643.5,474.4c-1.1-.5-2.3-.8-3.6-.8h-21.8c-.3,0-.3,0-.5.1,0,.3-.2.5-.4.7.2.2.2.3.2.6,0,.9,0,1.7,0,2.6.2.8.2,1.6.2,2.4,0,0,0,.2.1.2v.2c-.1.2-.1.4,0,.6v.4c-.1.2-.1.2,0,.4v2.5c-.2.6-.2,1.2,0,1.7v1s-.1.3-.1.3c0,.5,0,2.1,0,2.7s0,.4.1.5v.9c0,0,0,.2-.1.2v2.2c0,.1-.2.2-.4.2,0,.5,0,1-.1,1.4.7,0,.7,1.3,0,1.6v2.5c.2.4.4.9.6,1.3v.2c-.2.4-.2.9-.2,1.4l.7.5c.6,0,1.1-.1,1.6-.3.7,0,1.4.2,2.1.4.2,0,.1-.2,0-.4-.2,0-.3-.2-.2-.4v-.5c.3-.3.2-.8.2-1.3,0-.9,0-1.7,0-2.5s0-1.1,0-1.7v-1.2c.1-.6,0-1.2.2-1.7.4,0,.9-.1,1.2,0,.1.1,0,.5,0,.6-.1,0-.3,0-.3.2-.2.3,0,.7,0,1s0,.2,0,.3c0,0,0,.2,0,.3v7.9s-6.3,0-6.3,0c0-5.7,0-11.5,0-17.2v-.7c0-.4,0-.7,0-1.1v-.4c0-.2,0-.5,0-.7v-7.8c0-.1,0-.2,0-.4v-.4c0,0,0-.1,0-.2v-.4c0,0,0-.2,0-.3v-.9c0-.1,0-.3,0-.4v-.4s2.9,0,2.9,0h2.9c.6,0,1.1,0,1.6,0h1.2s5.5,0,5.5,0h2.2s1.5,0,1.5,0h2.9s1.6,0,1.6,0h1.3c.5.2,1,.1,1.5.2l.9.2c.4,0,1.8,0,2,.9s-.4.5-1,.5Z"/>
      <path class="st1" d="M623.1,494.7c0,.1,0,.3,0,.4h-.2c-.3,0-.3-.8,0-.9,0,.2,0,.3,0,.4Z"/>
      <path class="st1" d="M616.7,503.6s0,0,0-.1v-17.1s0,0,0,.1v17.1Z"/>
      <path class="st1" d="M616.6,485.7v-1.1c.1.2.1.8,0,1.1Z"/>
      <path class="st1" d="M616.6,484.3v-.7c.1.2.1.5,0,.7Z"/>
      <path class="st1" d="M616.6,474.5v-.3s.1,0,.1,0c0,0,0,.1,0,.2s-.1,0-.2,0Z"/>
      <path class="st1" d="M616.6,473.4v-.4c.1,0,.1.4,0,.4Z"/>
      <path class="st1" d="M616.6,475.8v-.4c0,0,0,0,0,.1,0,0,0,.2,0,.2Z"/>
      <path class="st1" d="M616.6,475v-.2s0,0,.1,0,0,0,0,.1-.1,0-.2,0Z"/>
      <path class="st1" d="M623,495.7v-.3s0,0,0,.1,0,.1,0,.1Z"/>
      <path class="st1" d="M617.8,491.3v9.4c0,0-.2,0-.3-.2,0-.3-.3-.5-.5-.8s0-.6,0-.9v-1.9c0-.3.3-.3.4-.4.2-.3,0-.7,0-.9-.2,0-.3-.1-.5-.3.2-.6.2-1.1,0-1.7h.5c0,.1,0-2.1,0-2.1,0-.1,0-.2.1-.2s.1,0,.2,0Z"/>
      <path class="st1" d="M617.8,500.9v1.5s3.8,0,3.8,0c.1,0,.2-.1.2-.2.2.1.5.3.6.6s-.2.4-.3.3l-2-.4c-.4.3-.7.2-1.2.2s-.4.2-.6,0-.2-.2-.4-.3l-.5-.2c0-.7,0-1.5.3-1.5Z"/>
      <path class="st1" d="M617.7,473.7v6.5c0,0-.2,0-.2-.3v-1.7c0-.3-.1-.5-.2-.7.2-.3.2-.6.1-1,0-.6.2-1.2,0-1.8s-.4-.3-.2-.5l.5-.5Z"/>
      <path class="st1" d="M617.8,486.9v3.5c-.2,0-.3-.3-.3-.5v-2.7c0,0,0-.2.1-.2s.1,0,.2,0Z"/>
      <path class="st1" d="M617.8,484.2v1.7c-.4,0-.4-1.1,0-1.7Z"/>
      <path class="st1" d="M617.8,480.4v.6c-.2,0-.2-.2-.2-.3s0-.2.2-.2Z"/>
      <path class="st1" d="M617.8,481.4v.4c-.2,0-.2,0-.2-.2s0-.2.2-.1Z"/>
      <path class="st1" d="M617.1,502.5c-.1,0-.2-.3,0-.4s.2.3,0,.4Z"/>
      <path class="st5" d="M643.5,474.4c.8.4,1.5.9,2.2,1.6.3,0,.8.5.6.8.8,1.3,1.1,2.9,1.2,4.4v.2c.2,0,.2.2,0,.3v3.4c0,.8-.1,1.6-.3,2.5-.8,3-2.9,4.7-6,5.3l6.9,9.7h-4.9s-2.5-3.4-2.5-3.4l-4.3-6.2h-14.7s0,8.9,0,8.9c.3,0,.2.4,0,.5.3.2,0,.3-.2.4-1.2,0-2.4,0-3.6,0-.2,0-.3-.1-.4-.3s0-1.3.2-1.4c-.2,0-.2-.1,0-.2-.1,0-.2-.2-.2-.5,0-3,0-5.9,0-8.9h.1c-.3-.1-.3-.9,0-.9,0,0,0,0,0-.2,0-.3,0-3.1,0-3.3s0,0,0,0c-.3,0-.3-.9,0-1-.2-.5-.2-1.1,0-1.7,0,0-.2,0-.2,0,0-.4,0-1.9,0-2.2h.2c-.1-.2-.1-.4,0-.5-.3,0-.2-.4,0-.4-.1,0-.1-.5,0-.6-.2,0-.2-.1,0-.2h-.1c0-2.1-.1-4.1-.1-6.1l.2-.4c-.1-.3.1-.4.4-.4h22c1,.1,2.3.3,3.2.7l.2.3Z"/>
      <path class="st1" d="M647.6,481.6v-.3s.1,0,.1,0c0,0,0,.1,0,.2s-.1,0-.2,0Z"/>
      <path class="st1" d="M643.5,484.6c0,2.5-1.5,4.3-4.1,4.3h-17.6s0-11.2,0-11.2h18c2.4.2,3.7,1.9,3.7,4.2v2.7Z"/>
      <path class="st0" d="M640.5,479.2h0c1.2.4,1.5,1.3,1.7,2.4,0,1.4,0,2.7-.1,4.1l-.3.6h0c0,.2-.2.4-.3.5,0,0,0,0,0,0-.1.2-.3.3-.5.3,0,0,0,0,0,0-.8.3-1.7.5-2.6.3h-13.4c-.6.1-1.2,0-1.8-.1v-8.1c0-.1,0-.3,0-.4,5.4,0,10.9,0,16.4,0,.4,0,.7,0,1,.2Z"/>
      <path class="st5" d="M640.5,479.2h-.6c0-.1-16.7-.1-16.7-.1v8.5s16.7,0,16.7,0l1-.3c-.2.4-1,.3-1.7.4s-.6.1-.9,0h-13.5c-.6.2-1.2.1-1.8-.1v-8.1c0-.2,0-.3,0-.4s.2-.1.4-.1h16s.8.1.8.1c.1,0,.2,0,.2.1Z"/>
      <path class="st5" d="M641.9,486.3c.1-.4.4-.9.4-1.4v-3.3c0-1.1-.7-2-1.6-2.4.4,0,.7.3,1,.6s.3.3.4.6.3.8.3,1.2v3.9c0,.4-.2.7-.4.9Z"/>
      <path class="st5" d="M640.9,487.3c.1-.2.3-.2.5-.3,0,.2-.3.4-.5.3Z"/>
      <path class="st5" d="M641.5,486.9l.3-.5c0,.2-.1.4-.3.5Z"/>
      <path class="st1" d="M611.4,490.1s0,0,0,0c-1.5,2.8-4.7,4.2-7.8,4.2-5.5,0-11,0-16.5,0l-.3.2v9.2c-2.1,0-4.3,0-6.5,0,0-3.7,0-7.7,0-11.4s0,0,0,0c.2,0,.3,0,.5,0h0c0-3.2.1-6.3.2-9.3,0-.3.1-1,.4-.6h.2c0,6.7,0,13.4,0,20h3.6s0,0,0,0c0-3.1,0-6.2,0-9.3h.2c0-.1,17.6-.1,17.6-.1,5,0,7.5-2.4,8-7.3v-4.6c-.2-2.1-1-4.4-2.7-5.7v-.3c0,0,0-.2,0-.2.4,0,.7-.3.7-.6h.2c2.1,1.4,3.3,4.1,3.4,6.7v4.8c0,1.5-.5,3-1.2,4.4Z"/>
      <path class="st1" d="M580.9,472.4c0,0,.2,0,.3,0,0,0,0,0,0,0,1.8,0,3.6,0,5.4,0s0,0,0,0c.2.1.4.1.5,0,.2-.1.8-.1,1,0,.1.1.2.1.4,0,0-.1.3-.1.4,0,0,0,.1,0,.2,0,.2-.1.9-.1,1.1,0,.2.1.5.1.7,0,0,0,0,0,0,0,.7,0,1.5,0,2.1,0s0,0,0,0c.1.1.2.1.4,0,0-.1.4-.1.4,0,.2.1.6.2.8,0,0-.1.5-.1.5,0,.1.1.3.1.4,0,0-.1.4-.1.4,0,.2,0,.2,0,0,0,.6,0,1,0,1.3,0,0-.1.3-.1.4,0,.2.1.5.1.6,0,0-.1.3-.1.4,0,.2.1.4.1.5,0,0-.1.5-.1.5,0,.1.1.6.1.8,0,0,0,0,0,0,0,.7,0,1.6,0,2.3,0s0,0,0,0c.3,0,.7.1,1.1.1.3,0,.6,0,.9,0,.5,0,1.2,0,1.7.4.4.4.9.6,1.5.7,0-.2.3,0,.4,0,0,0,0,0,0,0,.2.1.3.3.5.4v.4c-.2.3-.5.4-.9.5,0,0-.2,0-.3,0s-.9-.4-1-.5-.1-.2-.1-.2c-.2-.2-.5-.4-.7-.2h-.3c-.8-.2-1.6-.3-2.5-.3-7.3,0-14.7,0-22,0,0,.7-.1,1.5-.1,2.2,0,1.7,0,3.4,0,5.1,0,.2,0,.4.2.5.3,0,.2.7,0,.7-.4,0-.2,1-.3,1.7s0,.6,0,1v1.8c0,.5,0,.9,0,1.3v3.8c0,.3,0,.5-.3.5s-.3,0-.5-.2c0,0,0,0,0,0,0-4,0-8.1,0-12s0,0,0,0c0,0,0-.2,0-.3,0,0,0,0,0,0,0-.4,0-.9,0-1.3s0,0,0,0c.1,0,.1-.5,0-.6-.1,0-.1-.5,0-.5.1-.1.1-.3,0-.4-.1,0-.1-.5,0-.6.2-.3.1-.8,0-1.1-.2,0-.2-.1,0-.2,0,0,0-.1,0-.2,0-.4,0-.7,0-.9,0,0,0,0,0,0,0-.4,0-.9,0-1.2,0,0,.2-.1.3-.2,0-.1.3-.1.4,0Z"/>
      <path class="st5" d="M608.7,473.7h-.4c-.5-.2-1.1-.4-1.5-.8-.5-.2-1.1-.3-1.7-.4,0,0-.1,0-.2,0-.5,0-1.2,0-1.7-.1s-.1,0-.2,0h-2.4c-.1.2-.7.1-.8,0h-.5c0,.1-.5.1-.5,0h-.4c0,.1-.5.1-.6,0h-.4s0,0,0,0c-.1,0-1.2,0-1.3,0h-.4c0,.1-.4.1-.4,0h-.5c-.1.2-.6.1-.8,0h-.4c0,.1-.3.1-.4,0h-2.2c-.1.2-.6.1-.7,0h-1.1c0,.1-.1.1-.2,0h-.4c0,.1-.3.1-.4,0h-1c0,.1-.5.1-.5,0h-5.5c0,.1-.2.1-.3,0-.1,0-.2,0-.4,0l-.3.2v1.2c.2.2.2.8,0,1.1,0,0,0,.2,0,.2,0,.4.1.8,0,1.1v.6c.1,0,.1.4,0,.4v.5c.1,0,.1.5,0,.6v1.4c.1,0,.1.2,0,.3v12.1s0,10.7,0,10.7c0,.3,0,.5,0,.7h6.4s0-9.4,0-9.4h17.7c2.2,0,4.2-1.1,5.7-2.4l.5-.6.8-1.1c-.7,1.4-1.9,2.4-3.3,3.2l-.5.3c-1.2.5-2.8.8-4.1.8h-14.8c-.7-.1-1.2-.1-1.9,0v9.4s-5.8,0-5.8,0c-.3,0-.6-.1-.9,0v-.9s0-29.8,0-29.8v-.9s.9,0,.9,0h23.2c1.3.2,2.5.4,3.7,1s.3.3.5.3.2.1.2.2Z"/>
      <path class="st1" d="M608.3,473.6h-.6s-.7-.4-.7-.4c-.2-.1-.3-.2-.3-.4.5.2,1.3.5,1.5.7Z"/>
      <path class="st1" d="M605.1,472.5c0,.1-.2.2-.3.1-1.1-.2-1.8,0-1.7-.3.7,0,1.3,0,2,.1Z"/>
      <path class="st1" d="M597.5,472.4s0,.1,0,.1,0,0-.2,0h-1c0,0-.1,0-.2,0s0,0,0-.1h1.3Z"/>
      <path class="st1" d="M580.3,476.2c0-.4,0-.8,0-1.1.3.3.2,1.1,0,1.1Z"/>
      <path class="st1" d="M580.3,474.9v-1.1s.1,0,.1,0,0,0,0,.2v.7c0,0,0,.1,0,.2s0,0-.1,0Z"/>
      <path class="st1" d="M594.7,472.4c0,0,0,.2,0,.2-.4,0-.8,0-.7-.2h.8Z"/>
      <path class="st1" d="M600.7,472.4c0,0,0,.2,0,.2-.1,0-.3,0-.4,0h-.3c0,0,0-.1,0-.2h.8Z"/>
      <path class="st1" d="M590.9,472.4c0,0,0,.2,0,.2-.1,0-.4,0-.6,0s0,0,0-.2h.7Z"/>
      <path class="st1" d="M598.5,472.4s0,.1,0,.1c0,0-.2,0-.3,0h-.3c0,0,0-.1,0-.2h.6Z"/>
      <path class="st1" d="M580.3,478.4v-.6c.3,0,.1.2.2.5s0,.2-.2.1Z"/>
      <path class="st1" d="M587.2,472.4c0,.2,0,.2-.2.2s-.3,0-.3-.2h.5Z"/>
      <path class="st1" d="M599.4,472.4c0,.2,0,.2-.2.2s-.3,0-.3-.2h.5Z"/>
      <path class="st1" d="M580.3,477.3v-.4c.2,0,.2,0,.2.2s0,.2-.2.2Z"/>
      <path class="st1" d="M595.7,472.4c0,.2,0,.2-.2.2s-.2,0-.2-.2h.4Z"/>
      <path class="st1" d="M588.6,472.4c0,.1,0,.2-.1.2-.2,0-.3,0-.2-.2h.4Z"/>
      <path class="st1" d="M593.5,472.4c0,.1,0,.2-.1.2-.2,0-.3,0-.2-.2h.4Z"/>
      <path class="st1" d="M580.6,472.4s0,.1,0,.1c0,0-.1,0-.2,0,0,0,0-.1,0-.2s.1,0,.2,0Z"/>
      <path class="st1" d="M580.3,480.1v-.3s.1,0,.1,0c0,0,0,.1,0,.2s-.1,0-.2,0Z"/>
      <path class="st1" d="M581.2,472.4s0,.1,0,.1c0,0-.1,0-.2,0s0-.1,0-.2h.3Z"/>
      <path class="st1" d="M589.1,472.4s0,0,0,.1,0,0-.1,0,0-.1,0-.2h.2Z"/>
      <path class="st5" d="M606.2,474c.1-.2.6,0,.7.2.5.2,1,.4,1.4.7.6.5,1.2,1,1.7,1.7.9,1.5,1.4,3.2,1.4,4.9v3.7c0,2-.9,4.4-2.4,5.7s-3.7,1.9-5.8,1.9h-17.7s0,9.4,0,9.4h-4s0-20.2,0-20.2v-.7c-.1-.1-.2-.4-.1-.7,0-2.1,0-4.2,0-6.3v-.8c.2-.1.2-.2.4-.2h21.5c1.1,0,2,.1,3,.5Z"/>
      <path class="st1" d="M581.5,481.6c0,0-.2,0-.2,0-.2-.3,0-1.8,0-2.7s0-.9,0-1.3c.1-.8-.3-1.4,0-2.1s-.4-.7.2-1.7c.2.4,0,.8,0,1.2,0,1.3,0,2.8,0,4.2v2.5Z"/>
      <path class="st1" d="M606.9,474.3l-.7-.2c0,0,0-.1,0-.2.1,0,.6,0,.6.4Z"/>
      <path class="st1" d="M607.3,485.2c0,1.9-1.7,3.6-3.8,3.7h-18s0-11.2,0-11.2h18.1c1.2.1,2.3.6,2.9,1.5s.8,1.6.8,2.5v3.4Z"/>
      <path class="st0" d="M606,484.9c0,1.6-1.1,2.8-2.7,2.7h-16.5s0-8.5,0-8.5h16.5c.7,0,1.4.2,1.9.7s.8,1.2.8,2v3.1Z"/>
      <g>
        <path class="st1" d="M693.9,458.9c.8,0,2.6.4,3.1,1s0,.1.1.2c0,.2.2.2.3.3l.8.5.6.4,1.2,1-.2.5c.5,0,1.1.4,1.2.7.2.5.7.6.3.8-.3,0-.4-.5-.6-.6-.4-.3-.9-.1-1.3-.1s-.4-.1-.4,0c.1.3,0,.5,0,.8s0,1.2.2,1.5.2,0,.3,0,0,.1,0,.1h-.1c-.2.2-.3.3-.4.3s-.2-.2-.4-.3l-1-1c-.1-.1.2-.3.3-.4,0-.2-.2-.4-.5-.4h-1c-.4,0-.7-.2-1-.3h-.7c0-.1-122.4-.1-122.4-.1-.9,0-1.6.4-2.3.7l-.8-.2c-.4,0-.7-.1-1-.2s-.6.3-.9.2.2-.9-.2-.8-.3.3-.3.5c0,.3.2.4.5.4s.4.3.6.3c.4,0,.8.1,1.1.5l-1,1.2c-.3,0-.3-.3-.4-.4-.2-.1-.5,0-.7-.1-.2-.4-.5-.4-.8-.5s-.7-.5-1.1-.6c0-.2.2-.5.4-.7.2-.3.5-.5.7-.5,0-.6.6-1.1,1-1.5.7-.6,1.1-.9,2.1-1.1l.2-.2c.1-.4.4-.7.9-.9.5,0,1-.3,1.4-.6,0,0,0,0,0,0h.2c0-.2,0-.2,0-.1.4,0,.8-.2,1.2-.3h121.1Z"/>
        <path class="st1" d="M572.8,458.9c0,.1-.2.2-.3.2h-.9c0,.1.9-.2.9-.2h.3Z"/>
        <path class="st1" d="M571.3,459.4c-.8,1.1-1.2.4-1.7.8s-.4.3-.5.6c0,.7-1.3.6-1.6.7-.6.2-1,.9-1.5,1.3s-.4.6-.1,1h-.7c-.1,0-.1.4-.3.4,1.4-2.1,3.5-3.7,5.9-4.6s.3-.1.5,0Z"/>
        <path class="st1" d="M698.4,464c.1,0,.1,0,.1.1s-.3.2-.4.2,0-.2,0-.2.1,0,.3,0Z"/>
        <path class="st1" d="M571.6,459.3c0,0,0,0,0,0,0,0-.1,0-.1,0,0,0,.1-.1.2-.1Z"/>
      </g>
      <path class="st0" d="M680.6,496c-.5.7-1.3,1.1-2.1,1.1h-16c-1.8-.2-2.6-1.4-2.8-3.1v-11.9c0-.8.4-1.6,1.1-2.1.7-.5,1.4-.7,2.2-.7h15.3c1.6,0,2.8,1.3,2.8,2.8v11.8c0,.7-.2,1.3-.5,2Z"/>
    </g>
  </g>
</svg>